<svg width="138" height="38" viewBox="0 0 138 38" fill="none" xmlns="http://www.w3.org/2000/svg">
<path fill-rule="evenodd" clip-rule="evenodd" d="M0.478516 0.781413C17.0483 9.90316 47.1882 20.5779 28.0947 24.7355C33.4727 25.6461 35.4181 25.0458 35.4181 25.0458C30.6805 28.956 19.6342 33.2375 13.0146 35.5955C12.3526 35.8229 11.1322 36.3814 13.1389 36.1547C55.2142 26.2252 45.4089 9.90316 64.2125 1.40198C65.0346 1.01403 63.0801 0.936357 62.2269 0.719675C56.1606 -1.18944 50.5133 12.3241 43.9814 14.3105C42.1045 14.7446 37.1085 11.9361 44.6645 6.73897C45.3161 6.28928 45.0831 5.63724 44.1678 5.99413C32.2372 9.5164 9.19757 -0.195647 0.478516 0.781413Z" fill="#EF4035"/>
<path fill-rule="evenodd" clip-rule="evenodd" d="M96.1931 9.34437C96.1931 8.68994 95.6375 8.16138 94.954 8.16138C94.2693 8.16138 93.7136 8.68994 93.7136 9.34437L93.72 10.0032V19.3858V19.7917C93.72 20.4386 94.2752 20.9611 94.9599 20.9611C95.6438 20.9611 96.1999 20.4386 96.1999 19.7917L96.1931 19.3703V10.0637V9.34437Z" fill="#EF4035"/>
<path fill-rule="evenodd" clip-rule="evenodd" d="M130.445 12.8813V19.6024V19.796C130.445 20.4421 129.891 20.9659 129.209 20.9659C128.526 20.9659 127.973 20.4421 127.973 19.796V19.6435V13.8365L127.969 11.8931C127.969 11.1232 127.346 10.4998 126.576 10.4998C125.806 10.4998 125.181 11.1232 125.181 11.8931V13.7078V19.5646V19.796C125.181 20.4421 124.611 20.9659 123.907 20.9659C123.203 20.9659 122.632 20.4421 122.632 19.796L122.629 19.6176V13.2697L122.633 12.0711C122.633 9.9115 124.383 8.16132 126.542 8.16132C127.533 8.16132 128.437 8.53015 129.126 9.13838L129.185 9.19095C129.882 8.55246 130.81 8.16132 131.83 8.16132C133.988 8.16132 135.738 9.9115 135.738 12.0711L135.735 12.2392V19.5837L135.734 19.796C135.734 20.4421 135.181 20.9659 134.5 20.9659C133.818 20.9659 133.264 20.4421 133.264 19.796L133.263 19.6132V13.1151L133.264 11.9094C133.264 11.1303 132.634 10.4998 131.854 10.4998C131.076 10.4998 130.444 11.1303 130.444 11.9094L130.445 12.1492V12.8813Z" fill="#EF4035"/>
<path fill-rule="evenodd" clip-rule="evenodd" d="M55.4681 18.5798C58.06 18.5276 59.2425 16.9057 59.3987 14.3541C59.5552 11.8013 60.1463 8.39936 65.9414 8.16077L66.0389 8.16156C66.7061 8.16156 67.2474 8.67419 67.2474 9.30631C67.2474 9.93843 66.7061 10.4515 66.0389 10.4515L65.9414 10.4463C62.353 10.3662 61.8479 13.1301 61.8439 14.3541C61.6065 20.2316 56.8196 20.9577 55.6119 20.9629L55.3339 20.9637C54.6627 20.9637 54.1187 20.4304 54.1187 19.7724C54.1187 19.114 54.6627 18.5798 55.3339 18.5798H55.4681Z" fill="#EF4035"/>
<path fill-rule="evenodd" clip-rule="evenodd" d="M76.8539 15.0125V9.44413L76.8527 9.37283C76.8527 8.70407 77.4187 8.16157 78.1165 8.16157C78.8136 8.16157 79.3792 8.70407 79.3792 9.37283L79.3784 9.44413V15.0022V15.3109C79.3784 18.4309 76.8491 20.9601 73.7295 20.9601C70.6099 20.9601 68.0811 18.4309 68.0811 15.3109L68.0818 15.0125V9.41944V9.36925C68.0818 8.70088 68.6351 8.15997 69.3182 8.15997C70.0017 8.15997 70.555 8.70088 70.555 9.36925L70.5534 9.39753C70.5534 9.39753 70.5538 13.1241 70.5538 14.9827L70.551 15.2822C70.551 17.02 71.9606 18.4305 73.6984 18.4305C75.4371 18.4305 76.8463 17.02 76.8463 15.2822L76.8539 15.0125Z" fill="#EF4035"/>
<path fill-rule="evenodd" clip-rule="evenodd" d="M91.7837 18.8505C92.041 19.0716 92.2031 19.3946 92.2031 19.7547C92.2031 20.4211 91.6455 20.9612 90.9584 20.9612C90.6406 20.9612 90.3502 20.8465 90.1307 20.6565L84.6205 16.1157C84.3815 15.9046 84.2313 15.5951 84.2313 15.2514C84.2313 14.6133 84.7483 14.0959 85.386 14.0959L88.0089 14.0955C88.945 14.0955 89.7041 13.3359 89.7041 12.3999C89.7041 11.4634 88.945 10.7055 88.0089 10.7055L83.4582 10.7047V19.5655L83.4558 19.7583C83.4558 20.4231 82.8934 20.9612 82.2011 20.9612C81.5077 20.9612 80.9464 20.4231 80.9464 19.7583L80.946 19.4978V9.13452L80.9468 8.99909C80.9468 8.53625 81.3209 8.16144 81.7841 8.16144H82.2422H86.8164H88.083C90.3586 8.16144 92.2031 10.0064 92.2031 12.282C92.2031 14.3138 90.7318 16.0026 88.7964 16.3404L91.7837 18.8505Z" fill="#EF4035"/>
<path fill-rule="evenodd" clip-rule="evenodd" d="M99.9132 14.1066V19.675V19.7459C99.9132 20.4155 99.3483 20.9576 98.6501 20.9576C97.9527 20.9576 97.3875 20.4155 97.3875 19.7459L97.3879 19.675V14.1169V13.8079C97.3879 10.6887 99.9171 8.15979 103.037 8.15979C106.157 8.15979 108.685 10.6887 108.685 13.8079L108.684 14.1066V19.7001V19.7503C108.684 20.4179 108.132 20.96 107.448 20.96C106.765 20.96 106.212 20.4179 106.212 19.7503L106.213 19.722V14.1365L106.215 13.8365C106.215 12.0987 104.806 10.6891 103.068 10.6891C101.329 10.6891 99.9203 12.0987 99.9203 13.8365L99.9132 14.1066Z" fill="#EF4035"/>
<path fill-rule="evenodd" clip-rule="evenodd" d="M114.625 16.852C113.961 16.852 113.421 16.3135 113.421 15.6495C113.421 14.9851 113.961 14.4466 114.625 14.4466H118.833V14.1431L118.835 13.8427C118.835 12.1049 117.427 10.6953 115.688 10.6953C113.949 10.6953 112.54 12.1049 112.54 13.8427L112.532 14.1132V19.682L112.534 19.7529C112.534 20.4213 111.968 20.9638 111.27 20.9638C110.572 20.9638 110.006 20.4213 110.006 19.7529L110.008 19.682V14.1231V13.8144C110.008 10.6953 112.537 8.16638 115.657 8.16638C118.777 8.16638 121.305 10.6953 121.305 13.8144L121.305 14.1132V19.7067V19.7565C121.305 20.4244 120.752 20.9658 120.068 20.9658C119.385 20.9658 118.832 20.4244 118.832 19.7565L118.833 19.7282V16.852H114.625Z" fill="#EF4035"/>
<path fill-rule="evenodd" clip-rule="evenodd" d="M105.149 25.9346V25.3829V25.3522V25.1587L105.151 25.13C105.151 24.4628 104.598 23.9215 103.914 23.9215C103.231 23.9215 102.677 24.4628 102.677 25.13V25.1806V25.3279V25.9099V26.3528V26.6511C102.677 29.2983 104.499 31.5205 106.957 32.1331L107.07 32.1598V35.22V35.3861C107.07 36.0792 107.631 36.6416 108.322 36.6416C109.013 36.6416 109.573 36.0792 109.573 35.3861L109.582 35.1758V32.1598L109.686 32.1343C112.148 31.5261 113.975 29.3015 113.975 26.6511V25.134C113.975 24.4656 113.408 23.9227 112.711 23.9227C112.014 23.9227 111.448 24.4656 111.448 25.134V25.2049V25.3578V26.3528L111.443 26.6229C111.443 28.3611 110.033 29.7699 108.295 29.7699C106.556 29.7699 105.147 28.3611 105.147 26.6229L105.149 26.3233V25.9346Z" fill="#EF4035"/>
<path fill-rule="evenodd" clip-rule="evenodd" d="M127.057 35.2334C127.057 36.011 126.425 36.6415 125.648 36.6415C124.87 36.6415 124.239 36.011 124.239 35.2334C124.239 34.4551 124.87 33.8234 125.648 33.8234C126.425 33.8234 127.057 34.4551 127.057 35.2334Z" fill="#EF4035" stroke="black" stroke-width="0.1"/>
<path d="M125.037 36.1832V34.531H125.818C126.014 34.531 126.157 34.5458 126.246 34.5755C126.335 34.6052 126.406 34.658 126.46 34.7339C126.513 34.8097 126.54 34.8965 126.54 34.9942C126.54 35.1182 126.499 35.2205 126.418 35.3013C126.337 35.3821 126.216 35.433 126.055 35.454C126.135 35.4961 126.201 35.5423 126.253 35.5926C126.306 35.643 126.376 35.7324 126.465 35.8609L126.689 36.1832H126.245L125.977 35.8237C125.882 35.6952 125.817 35.6142 125.781 35.5808C125.746 35.5474 125.709 35.5245 125.67 35.5121C125.631 35.4997 125.568 35.4935 125.483 35.4935H125.408V36.1832H125.037ZM125.408 35.2297H125.682C125.86 35.2297 125.972 35.223 126.016 35.2095C126.06 35.1959 126.095 35.1726 126.12 35.1396C126.145 35.1065 126.158 35.0652 126.158 35.0156C126.158 34.96 126.141 34.9151 126.108 34.8809C126.075 34.8468 126.028 34.8252 125.968 34.8161C125.938 34.8124 125.848 34.8105 125.697 34.8105H125.408V35.2297Z" fill="#EF4035"/>
<path fill-rule="evenodd" clip-rule="evenodd" d="M116.521 32.1995C116.521 31.4961 115.951 30.9261 115.248 30.9261C114.544 30.9261 113.975 31.4961 113.975 32.1995V32.2505C113.975 34.6754 115.941 36.6415 118.366 36.6415C120.791 36.6415 122.757 34.6754 122.757 32.2505C122.757 30.1713 121.312 28.4307 119.374 27.9754L117.876 27.5858C117.627 27.5026 117.447 27.2672 117.447 26.9908C117.447 26.6442 117.728 26.363 118.074 26.363C118.312 26.363 118.518 26.4945 118.624 26.6877L118.701 26.8151C118.926 27.1716 119.324 27.4094 119.777 27.4094C120.478 27.4094 121.048 26.841 121.048 26.1396C121.048 25.9946 121.024 25.856 120.979 25.7281L120.895 25.5214C120.367 24.5045 119.303 23.8094 118.077 23.8094C116.324 23.8094 114.903 25.2302 114.903 26.9824C114.903 28.5203 115.995 29.8013 117.447 30.0944L118.963 30.5071C119.696 30.7528 120.225 31.4455 120.225 32.2624C120.225 33.2861 119.396 34.115 118.373 34.115C117.35 34.115 116.521 33.2861 116.521 32.2624V32.1995Z" fill="#EF4035"/>
<path fill-rule="evenodd" clip-rule="evenodd" d="M50.7101 32.7666C50.0457 32.7666 49.5072 32.2285 49.5072 31.5645C49.5072 30.8997 50.0457 30.3608 50.7101 30.3608H54.9178V30.0577L54.9202 29.7582C54.9202 28.0199 53.511 26.6103 51.7724 26.6103C50.0337 26.6103 48.6249 28.0199 48.6249 29.7582L48.6177 30.0282V35.5966L48.6185 35.6679C48.6185 36.3363 48.0529 36.8788 47.3551 36.8788C46.658 36.8788 46.092 36.3363 46.092 35.6679L46.0932 35.5966V30.0386V29.7291C46.0932 26.6099 48.6217 24.0814 51.7409 24.0814C54.8617 24.0814 57.3906 26.6099 57.3906 29.7291L57.3898 30.0282V35.6213V35.6719C57.3898 36.3395 56.8365 36.8808 56.1526 36.8808C55.4703 36.8808 54.9166 36.3395 54.9166 35.6719L54.9178 35.6432V32.7666H50.7101Z" fill="#EF4035"/>
<path fill-rule="evenodd" clip-rule="evenodd" d="M95.1305 32.7666C94.4661 32.7666 93.9276 32.2285 93.9276 31.5645C93.9276 30.8997 94.4661 30.3608 95.1305 30.3608H99.3383V30.0577L99.3398 29.7582C99.3398 28.0199 97.9318 26.6103 96.1924 26.6103C94.4545 26.6103 93.0449 28.0199 93.0449 29.7582L93.0377 30.0282V35.5966L93.0385 35.6679C93.0385 36.3363 92.4737 36.8788 91.7751 36.8788C91.0781 36.8788 90.5125 36.3363 90.5125 35.6679L90.5128 35.5966V30.0386V29.7291C90.5128 26.6099 93.0425 24.0814 96.1621 24.0814C99.2809 24.0814 101.811 26.6099 101.811 29.7291V30.0282V35.6213V35.6719C101.811 36.3395 101.256 36.8808 100.574 36.8808C99.8899 36.8808 99.3371 36.3395 99.3371 35.6719L99.3383 35.6432V32.7666H95.1305Z" fill="#EF4035"/>
<path fill-rule="evenodd" clip-rule="evenodd" d="M61.6635 25.2636C61.6635 24.61 61.1082 24.0814 60.4235 24.0814C59.7392 24.0814 59.1836 24.61 59.1836 25.2636L59.1908 25.9228V35.3047V35.7109C59.1908 36.357 59.7452 36.8808 60.4299 36.8808C61.1142 36.8808 61.6703 36.357 61.6703 35.7109L61.6635 35.2891V25.983V25.2636Z" fill="#EF4035"/>
<path fill-rule="evenodd" clip-rule="evenodd" d="M74.5208 34.7703C74.7781 34.9909 74.941 35.3136 74.941 35.6732C74.941 36.34 74.383 36.8809 73.6955 36.8809C73.3776 36.8809 73.0877 36.7654 72.8682 36.5758L67.3579 32.035C67.1189 31.8239 66.9684 31.5144 66.9684 31.1707C66.9684 30.5326 67.4858 30.0152 68.1231 30.0152L70.7464 30.0144C71.682 30.0144 72.4412 29.2556 72.4412 28.32C72.4412 27.3832 71.682 26.6244 70.7464 26.6244L66.1953 26.624V35.4848L66.1937 35.6776C66.1937 36.3428 65.6313 36.8809 64.9386 36.8809C64.2451 36.8809 63.6839 36.3428 63.6839 35.6776L63.6831 35.4175V25.0534L63.6839 24.918C63.6839 24.4556 64.0587 24.0815 64.5212 24.0815H64.9796H69.5534H70.8201C73.0956 24.0815 74.941 25.9249 74.941 28.2017C74.941 30.2331 73.4696 31.9219 71.5334 32.2597L74.5208 34.7703Z" fill="#EF4035"/>
<path fill-rule="evenodd" clip-rule="evenodd" d="M81.5905 32.1637V25.4418V25.2478C81.5905 24.6018 82.1442 24.0784 82.8257 24.0784C83.5084 24.0784 84.0624 24.6018 84.0624 25.2478V25.4008V31.2074L84.0656 33.1511C84.0656 33.9211 84.689 34.5452 85.4589 34.5452C86.2297 34.5452 86.8534 33.9211 86.8534 33.1511V31.3372V25.4792V25.2486C86.8534 24.6018 87.4242 24.0784 88.1288 24.0784C88.8322 24.0784 89.4026 24.6018 89.4026 25.2486L89.4054 25.4267V31.7746L89.4022 32.9739C89.4022 35.1331 87.652 36.8833 85.4932 36.8833C84.5022 36.8833 83.5972 36.5145 82.9081 35.9071L82.8492 35.8541C82.1541 36.493 81.2253 36.8833 80.2056 36.8833C78.0467 36.8833 76.2961 35.1331 76.2961 32.9739L76.2993 32.8054V25.4613L76.3013 25.2478C76.3013 24.6018 76.8534 24.0784 77.5349 24.0784C78.2168 24.0784 78.7701 24.6018 78.7701 25.2478L78.7713 25.431V31.9291L78.7701 33.1348C78.7701 33.9143 79.4018 34.5452 80.1805 34.5452C80.9592 34.5452 81.5905 33.9143 81.5905 33.1348V32.8954V32.1637Z" fill="#EF4035"/>
</svg>
